<?xml version="1.0" standalone="no"?>
<!DOCTYPE svg PUBLIC "-//W3C//DTD SVG 20010904//EN"
 "http://www.w3.org/TR/2001/REC-SVG-20010904/DTD/svg10.dtd">
<svg version="1.0" xmlns="http://www.w3.org/2000/svg"
 width="267.000000pt" height="216.000000pt" viewBox="0 0 267.000000 216.000000"
 preserveAspectRatio="xMidYMid meet">
<metadata>
Created by potrace 1.10, written by Peter Selinger 2001-2011
</metadata>
<g transform="translate(0.000000,216.000000) scale(0.100000,-0.100000)"
fill="#000000" stroke="none">
<path d="M1135 1276 c-22 -14 -50 -26 -63 -26 -61 -1 -82 -29 -283 -387 -13
-23 -33 -44 -44 -47 -11 -3 -35 -19 -53 -37 -59 -58 -39 -139 46 -183 17 -9
45 -39 63 -69 17 -30 44 -62 60 -72 26 -18 27 -21 13 -47 -26 -50 -18 -86 29
-130 23 -21 61 -57 84 -78 l41 -40 239 0 239 0 34 -25 c51 -38 94 -34 141 14
36 35 39 43 39 92 0 42 7 65 30 104 16 28 30 65 30 83 0 29 3 32 31 32 23 0
42 10 71 40 38 37 40 43 36 84 -3 26 0 53 8 67 25 46 16 80 -53 199 -37 63
-82 143 -100 176 -18 34 -40 67 -48 74 -11 9 -13 25 -9 66 7 53 6 54 -33 94
-49 48 -86 52 -148 16 -30 -18 -58 -25 -105 -26 -37 -2 -75 -9 -89 -17 -23
-15 -25 -14 -55 21 -42 50 -94 58 -151 22z m120 -41 c14 -13 25 -36 25 -50 0
-65 -89 -98 -134 -50 -15 16 -34 25 -52 25 -26 0 -34 -9 -79 -88 -27 -48 -66
-115 -87 -149 l-38 -63 101 0 c96 0 103 2 125 25 13 14 34 25 47 25 17 0 30
11 47 43 14 23 34 58 45 77 11 20 38 68 60 108 l40 72 89 0 c82 0 89 2 108 25
42 53 128 19 128 -51 0 -66 -89 -99 -129 -49 -18 24 -25 26 -92 23 -51 -2 -74
-7 -80 -18 -5 -8 -40 -69 -78 -134 -54 -93 -68 -123 -60 -137 14 -28 11 -54
-12 -83 -28 -35 -81 -36 -113 -1 -23 24 -26 25 -170 25 l-147 0 19 28 c10 15
30 47 44 72 14 25 58 102 98 173 l73 127 45 0 c35 0 50 6 68 25 31 33 77 33
109 0z m281 -141 c27 -14 53 -29 58 -34 15 -15 -72 -148 -115 -176 -47 -29
-79 -77 -79 -118 0 -28 31 -64 103 -121 14 -11 51 -65 82 -119 52 -92 55 -101
44 -128 -11 -28 -107 -108 -128 -108 -5 0 -30 36 -56 80 -38 67 -45 86 -40
114 12 61 -47 136 -107 136 -16 0 -50 -11 -76 -25 -43 -23 -58 -25 -169 -25
l-123 0 -24 38 c-19 29 -24 51 -24 100 l0 62 87 0 c73 0 93 -4 133 -25 26 -14
59 -25 73 -25 60 0 123 80 110 140 -5 22 6 48 50 126 31 55 66 107 77 117 28
24 67 21 124 -9z m-391 -4 c22 -11 47 -20 57 -20 48 0 -13 -98 -87 -139 -63
-36 -135 -43 -135 -14 0 18 87 174 104 185 15 11 17 10 61 -12z m565 -32 c13
-24 63 -111 112 -195 48 -83 88 -155 88 -160 0 -5 -11 -24 -23 -43 -21 -29
-22 -37 -11 -58 15 -29 1 -77 -26 -92 -52 -28 -120 8 -120 62 0 36 40 78 73
78 18 0 28 8 37 30 11 26 9 34 -23 87 -44 73 -93 159 -114 201 -16 30 -33 43
-33 24 0 -5 -22 -45 -49 -90 -32 -53 -45 -84 -38 -91 13 -13 12 -60 -1 -73 -7
-7 0 -27 24 -64 19 -29 34 -55 34 -58 0 -3 25 -46 55 -97 30 -50 55 -94 55
-97 0 -2 -20 -38 -45 -78 -24 -40 -40 -76 -35 -79 19 -12 11 -73 -12 -95 -48
-45 -128 -11 -128 55 0 36 36 75 70 75 11 0 32 23 54 61 20 33 36 62 36 64 0
2 -34 60 -75 130 -41 69 -75 131 -75 136 0 5 -12 9 -27 9 -67 0 -99 88 -47
129 15 12 37 21 50 21 13 0 24 4 24 9 0 5 26 54 58 108 32 54 61 106 65 116
10 27 21 21 47 -25z m27 -235 c72 -122 71 -118 26 -146 -21 -13 -44 -32 -52
-41 -20 -24 -26 -20 -55 28 -34 59 -37 157 -5 210 12 20 24 36 28 36 4 0 30
-39 58 -87z m-913 -64 c27 -21 34 -56 17 -87 -7 -13 0 -34 26 -80 l35 -62 155
0 c153 0 156 0 179 25 58 63 165 -9 125 -84 -9 -16 20 -73 121 -238 l20 -33
-236 0 -236 0 -20 40 c-14 28 -27 40 -42 40 -59 0 -88 82 -46 127 44 47 128
13 128 -52 0 -19 -5 -37 -10 -40 -7 -4 -4 -17 7 -36 l17 -29 174 0 174 0 -14
23 c-8 12 -32 52 -52 90 -30 54 -42 67 -62 67 -13 0 -34 11 -46 25 -21 25 -23
25 -194 25 l-173 0 -33 57 c-18 32 -36 66 -40 75 -4 10 -17 18 -28 18 -33 0
-56 16 -69 49 -10 24 -10 34 3 59 24 47 75 56 120 21z m416 -351 c32 -20 59
-46 71 -70 10 -20 19 -40 19 -43 0 -3 -51 -5 -114 -5 -124 0 -132 3 -128 53 1
16 -4 43 -13 60 -8 16 -15 32 -15 34 0 1 29 3 64 3 55 0 72 -5 116 -32z"/>
<path d="M1176 1194 c-4 -10 -2 -22 3 -27 15 -15 46 -3 46 18 0 26 -40 33 -49
9z"/>
<path d="M1584 1195 c-4 -9 -2 -21 4 -27 15 -15 44 -1 40 19 -4 23 -36 29 -44
8z"/>
<path d="M1152 848 c-15 -18 1 -41 24 -36 23 4 26 41 3 46 -9 1 -21 -3 -27
-10z"/>
<path d="M1494 785 c-8 -19 3 -35 26 -35 22 0 33 23 17 39 -15 15 -37 14 -43
-4z"/>
<path d="M1784 585 c-8 -19 3 -35 26 -35 22 0 33 23 17 39 -15 15 -37 14 -43
-4z"/>
<path d="M1584 235 c-4 -9 -2 -21 4 -27 15 -15 44 -1 40 19 -4 23 -36 29 -44
8z"/>
<path d="M747 717 c-8 -21 8 -39 29 -35 27 5 25 42 -2 46 -12 2 -24 -3 -27
-11z"/>
<path d="M1267 517 c-8 -21 8 -39 29 -35 27 5 25 42 -2 46 -12 2 -24 -3 -27
-11z"/>
<path d="M954 365 c-4 -9 -2 -21 4 -27 15 -15 44 -1 40 19 -4 23 -36 29 -44 8z"/>
</g>
</svg>
