<?xml version="1.0" standalone="no"?>
<!DOCTYPE svg PUBLIC "-//W3C//DTD SVG 20010904//EN"
 "http://www.w3.org/TR/2001/REC-SVG-20010904/DTD/svg10.dtd">
<svg version="1.0" xmlns="http://www.w3.org/2000/svg"
 width="400.000000pt" height="416.000000pt" viewBox="0 0 300.000000 312.000000"
 preserveAspectRatio="xMidYMid meet">
<metadata>
Created by potrace 1.10, written by Peter Selinger 2001-2011
</metadata>
<g transform="translate(0.000000,312.000000) scale(0.100000,-0.100000)"
fill="none" stroke="#FFFFFF" stroke-width="50">
<path d="M1245 2693 c-178 -23 -344 -68 -470 -128 -89 -43 -116 -66 -108 -94
4 -15 1 -21 -11 -21 -10 0 -16 -8 -16 -21 0 -20 -34 -58 -117 -132 -21 -18
-37 -46 -48 -85 -27 -91 -65 -152 -114 -184 -25 -15 -53 -28 -64 -28 -10 0
-34 -15 -53 -34 -28 -28 -34 -41 -34 -78 0 -49 42 -129 108 -204 20 -23 47
-56 60 -73 33 -43 168 -131 202 -131 15 0 61 16 101 35 156 73 330 95 382 47
12 -11 29 -20 37 -20 96 -7 120 -14 120 -33 0 -13 -54 -11 -67 2 -15 15 -52
-13 -92 -71 -38 -55 -38 -63 -5 -89 23 -18 41 -21 126 -21 55 0 108 5 118 10
25 13 90 98 90 117 0 8 -11 25 -24 38 -28 28 -19 35 45 35 26 0 46 7 60 21 20
20 20 20 0 54 -22 38 -19 45 23 45 23 0 41 12 80 54 l51 54 72 4 c53 3 80 9
100 25 l29 21 27 -24 c18 -15 41 -24 63 -24 l34 0 0 -76 c0 -41 5 -84 11 -96
14 -26 10 -28 -45 -32 -53 -3 -65 7 -42 33 16 18 21 66 10 96 -13 32 -61 46
-152 44 -81 -2 -88 -4 -115 -31 -25 -24 -29 -34 -24 -65 11 -63 28 -73 132
-73 50 0 94 -3 98 -6 5 -6 -40 -74 -76 -115 -13 -15 -11 -21 25 -55 23 -22 38
-33 34 -26 -5 8 2 12 23 12 33 0 44 -26 16 -36 -13 -5 -13 -9 0 -34 18 -34 19
-44 5 -35 -23 14 -8 -25 18 -45 23 -19 27 -20 30 -6 3 15 7 14 37 -4 21 -13
36 -17 40 -10 3 5 25 10 49 10 67 0 105 59 80 125 -8 19 -55 45 -84 45 -26 0
-26 2 15 56 37 48 41 64 25 95 -10 18 -7 19 60 19 64 0 86 -9 60 -25 -5 -3
-10 -41 -10 -84 0 -68 3 -80 23 -99 20 -19 35 -22 105 -22 45 0 82 -2 82 -5 0
-3 -7 -17 -16 -30 -15 -23 -15 -27 6 -60 29 -47 72 -69 122 -62 82 11 91 58
25 122 -44 41 -44 42 -25 64 13 18 18 40 18 91 0 57 -4 71 -25 94 -23 25 -27
26 -140 26 -104 0 -134 7 -105 25 6 3 10 40 10 81 0 101 -13 114 -114 114 -41
0 -78 5 -81 10 -3 6 4 24 16 41 12 18 22 45 22 60 0 23 5 29 22 29 13 0 28 7
35 15 19 23 30 18 30 -14 0 -41 19 -90 40 -101 10 -6 32 -10 48 -10 39 0 44
-8 25 -37 -19 -29 -10 -54 43 -112 l36 -41 78 0 c62 0 80 4 93 18 23 25 21 41
-9 87 -38 56 -63 75 -106 75 -41 0 -50 17 -23 40 11 9 15 32 15 80 0 96 -15
113 -109 118 -64 4 -75 2 -96 -18 -20 -19 -27 -21 -40 -10 -24 20 -18 30 19
30 26 0 41 7 60 31 32 38 33 63 1 94 -18 19 -35 25 -70 25 -32 0 -45 4 -45 14
0 8 5 18 10 21 6 4 8 16 4 28 -12 39 -35 57 -76 57 -28 0 -38 4 -38 16 0 14
-3 14 -15 4 -19 -16 -19 -7 0 29 14 28 14 28 -25 41 -56 18 -120 8 -148 -26
-32 -36 -26 -75 13 -93 17 -8 32 -18 33 -23 2 -4 16 0 30 10 48 33 56 36 50
21 -9 -25 35 -93 67 -103 17 -6 31 -11 32 -11 2 -1 -3 -16 -9 -33 -10 -27 -10
-37 5 -61 15 -26 15 -29 1 -35 -26 -10 -34 3 -34 53 0 37 -5 52 -22 68 -30 27
-90 45 -122 37 -20 -5 -25 -3 -21 7 4 11 -6 14 -40 15 -71 1 -121 60 -79 95 8
7 22 25 30 41 14 27 13 30 -10 53 -14 14 -35 25 -48 25 -13 0 -30 5 -38 10
-11 7 -3 14 35 30 93 38 140 65 143 81 13 70 -234 141 -483 137 -60 0 -123 -3
-140 -5z m340 -48 c93 -14 204 -44 249 -68 16 -8 8 -13 -50 -31 -76 -24 -172
-73 -218 -110 l-30 -23 115 -7 c62 -4 115 -9 118 -11 2 -2 -20 -26 -49 -52
l-52 -48 48 -52 49 -51 118 -22 117 -23 0 -83 0 -84 -39 0 c-33 0 -43 -5 -61
-30 -12 -16 -27 -30 -34 -30 -7 0 -30 -25 -52 -55 l-39 -55 -86 0 -85 0 -42
-60 -42 -59 -102 -3 -102 -3 77 -59 c42 -32 77 -59 77 -60 0 0 -80 0 -177 2
-171 3 -178 4 -199 27 -58 62 -268 39 -441 -49 -29 -14 -63 -26 -75 -26 -13 0
-59 26 -103 58 -106 76 -108 92 -23 149 35 23 79 48 98 57 19 8 27 15 18 15
-25 1 -66 -18 -130 -62 -41 -28 -62 -37 -78 -32 -11 4 -41 37 -66 75 -40 60
-45 73 -42 116 l3 48 59 17 c100 30 169 118 205 264 8 31 19 45 46 60 50 26
92 77 127 151 26 57 33 64 86 87 265 119 547 161 807 122z m403 -305 c-20 -27
-27 -30 -81 -30 l-58 0 21 30 c20 28 26 30 81 30 l60 0 -23 -30z m132 -95 c0
-23 -4 -25 -45 -25 -41 0 -45 2 -45 25 0 23 4 25 45 25 41 0 45 -2 45 -25z
m120 -127 l0 -33 -70 0 -70 0 0 33 0 32 70 0 70 0 0 -32z m-90 -133 c0 -23 -3
-25 -50 -25 -47 0 -50 2 -50 25 0 23 3 25 50 25 47 0 50 -2 50 -25z m230 -60
l0 -75 -80 0 -80 0 0 75 0 75 80 0 80 0 0 -75z m-310 -32 c0 -5 -17 -27 -38
-51 l-37 -43 -68 3 -68 3 37 48 37 47 68 0 c38 0 69 -3 69 -7z m400 -141 c0
-5 16 -27 35 -49 19 -23 35 -43 35 -45 0 -2 -35 -2 -77 0 -73 3 -80 5 -106 35
-58 65 -57 67 33 67 44 0 80 -4 80 -8z m-256 -84 l-1 -73 -112 0 -112 0 -2 73
-2 72 115 0 115 0 -1 -72z m-364 -23 l0 -45 -110 0 -110 0 0 45 0 45 110 0
110 0 0 -45z m194 -137 c-4 -7 -23 -32 -42 -55 l-34 -43 -94 0 c-52 0 -94 2
-94 5 0 3 15 26 33 50 l32 44 90 3 c50 2 96 5 103 6 8 1 10 -3 6 -10z m426
-68 l0 -80 -132 0 -133 0 0 80 0 80 133 0 132 0 0 -80z m-1145 -20 l-37 -50
-114 0 c-63 0 -114 3 -114 6 0 3 16 25 36 49 l36 44 111 3 c62 2 114 2 116 1
2 -1 -13 -25 -34 -53z m745 -126 l0 -44 -95 0 -95 0 0 44 0 43 95 0 95 0 0
-43z m443 -56 l28 -33 -52 -3 c-48 -3 -54 -1 -80 30 -15 18 -28 36 -29 40 0 4
24 5 53 3 45 -3 56 -8 80 -37z"/>
<path d="M1226 2570 c-115 -13 -229 -38 -331 -72 -119 -40 -122 -42 -146 -94
-27 -57 -96 -134 -143 -159 -21 -12 -36 -27 -36 -38 0 -10 -14 -52 -31 -93
-32 -78 -97 -156 -144 -174 -16 -6 -25 -17 -25 -31 0 -11 -13 -33 -30 -49
l-29 -27 30 -42 c18 -24 36 -38 42 -34 7 3 32 20 56 36 57 39 120 57 198 57
36 0 108 11 161 24 53 13 109 27 125 30 15 4 27 13 27 20 0 20 48 56 75 56 32
0 64 -30 71 -67 5 -26 1 -37 -19 -57 -30 -30 -77 -35 -101 -11 -13 14 -25 13
-113 -6 -178 -38 -320 -95 -403 -159 -25 -19 -25 -19 -5 -34 11 -8 43 -28 70
-45 l51 -31 99 45 c136 60 207 77 308 73 45 -2 90 -8 100 -12 17 -8 18 -5 11
29 -10 54 12 42 54 -28 l33 -57 62 0 61 0 -33 28 c-31 26 -33 31 -40 115 -6
85 -6 88 14 83 11 -3 23 -6 26 -6 4 0 9 -18 13 -40 l6 -40 98 0 99 0 38 55 37
55 73 0 72 0 32 46 c25 34 39 44 56 42 24 -3 55 17 55 37 0 6 -10 17 -22 23
-19 9 -13 11 40 11 l63 1 -3 32 -3 31 -103 21 c-101 21 -104 22 -145 68 l-42
47 -109 7 c-106 7 -109 7 -88 24 12 10 48 21 81 25 43 5 65 13 81 30 l22 23
-29 6 c-15 3 -60 7 -100 8 -57 2 -76 -1 -91 -16 -16 -14 -111 -44 -145 -46
-14 0 45 46 81 64 18 10 80 53 137 96 58 44 123 85 146 92 l43 12 -34 8 c-58
12 -320 17 -404 8z m254 -55 c0 -2 -21 -13 -47 -25 -27 -12 -82 -43 -124 -70
-62 -41 -83 -50 -120 -50 l-44 0 53 32 c28 18 52 35 52 38 0 3 -26 3 -57 -1
-119 -16 -258 -22 -248 -11 16 16 163 59 245 71 109 16 290 26 290 16z m-557
-79 c-8 -42 33 -60 124 -54 75 5 77 4 101 -23 18 -22 33 -29 58 -29 29 0 34
-3 34 -23 0 -44 74 -60 144 -31 15 6 17 4 12 -13 -14 -44 54 -71 187 -73 20 0
43 -14 75 -46 35 -33 62 -49 105 -61 56 -16 67 -25 46 -38 -5 -4 -14 -18 -19
-31 -8 -21 -26 -29 -52 -25 -5 0 -8 -7 -8 -18 0 -24 -19 -39 -57 -47 -25 -5
-34 -1 -52 22 -12 15 -23 25 -26 22 -3 -3 4 -15 15 -28 11 -13 20 -27 20 -32
0 -12 -64 -10 -77 3 -17 17 -36 0 -30 -27 5 -26 -26 -63 -38 -45 -3 6 -16 16
-28 22 -18 10 -17 7 7 -19 l28 -30 -22 -12 c-16 -8 -25 -9 -35 0 -10 9 -19 9
-35 0 -12 -6 -28 -9 -36 -6 -12 5 -13 10 -3 28 12 22 11 23 -8 5 -20 -17 -21
-17 -46 16 -35 46 -63 52 -93 22 -21 -21 -24 -34 -24 -95 l0 -71 -34 35 c-39
42 -48 43 -83 16 -21 -16 -41 -20 -107 -20 -99 0 -170 -18 -295 -72 -89 -39
-94 -41 -120 -25 -14 9 -26 22 -26 29 0 24 146 87 275 120 110 27 130 30 167
19 70 -18 92 -14 129 23 29 29 34 41 34 83 0 42 -5 54 -32 82 -29 30 -37 33
-75 28 -31 -3 -54 -14 -82 -40 -21 -19 -47 -37 -57 -40 -76 -22 -210 -45 -262
-47 -67 -1 -110 -13 -190 -54 -28 -14 -54 -22 -57 -17 -9 16 29 70 87 121 54
48 111 140 137 220 7 24 28 48 63 74 l53 39 -37 -42 c-21 -22 -38 -46 -38 -52
0 -19 51 -57 87 -64 30 -5 44 -1 93 29 32 20 65 36 74 36 9 0 16 7 16 15 0 18
5 18 29 5 26 -13 76 39 66 69 -11 36 -69 71 -136 83 -35 6 -68 15 -72 19 -20
17 6 49 56 68 68 26 75 26 70 -3z m-29 -130 c47 -14 86 -41 86 -58 0 -4 -15
-8 -32 -8 -39 0 -108 -30 -156 -67 -33 -25 -35 -25 -85 -11 l-52 15 31 16 c40
21 94 82 94 107 0 25 44 27 114 6z"/>
<path d="M1421 1454 c-28 -23 -31 -32 -31 -80 0 -45 4 -59 25 -79 21 -22 33
-25 92 -25 l68 0 -32 -26 c-41 -32 -41 -48 -2 -107 52 -78 69 -87 170 -87 76
0 92 3 109 20 28 28 26 39 -20 103 -49 68 -58 74 -137 82 l-61 7 26 23 c21 18
27 34 32 84 5 57 4 63 -20 86 -23 22 -34 25 -107 25 -73 0 -85 -3 -112 -26z
m199 -79 l0 -65 -95 0 -95 0 0 65 0 65 95 0 95 0 0 -65z m30 -165 l75 0 43
-57 42 -58 -93 -3 c-86 -3 -93 -1 -110 20 -9 13 -31 40 -47 60 -36 44 -37 52
-7 44 12 -3 56 -6 97 -6z"/>
<path d="M289 1338 c-14 -27 -7 -144 16 -242 54 -231 142 -384 316 -550 62
-58 114 -104 116 -102 3 2 50 -18 106 -45 301 -143 665 -150 993 -19 151 60
284 149 284 190 0 32 -28 42 -160 56 -72 7 -135 16 -141 19 -5 4 -1 17 11 32
44 56 8 113 -71 113 -51 0 -89 -29 -89 -68 0 -29 -23 -28 -79 5 -55 31 -171
122 -171 133 0 4 18 10 41 13 88 12 120 97 60 158 -26 26 -37 29 -89 29 -64 0
-112 -25 -112 -59 0 -33 -13 -30 -79 23 -101 81 -147 104 -299 150 -41 13 -57
14 -74 5 -18 -10 -20 -9 -16 7 4 17 0 19 -34 16 -51 -5 -185 15 -264 39 -35
11 -97 42 -137 69 -82 55 -110 61 -128 28z m66 -32 c83 -76 190 -117 374 -141
324 -44 384 -71 597 -275 235 -225 378 -291 669 -309 l110 -6 -56 -37 c-149
-97 -307 -161 -484 -194 -136 -25 -386 -15 -515 20 -390 108 -643 387 -714
789 -18 99 -28 187 -23 187 3 0 21 -15 42 -34z m1155 -338 l0 -53 -75 0 -75 0
0 53 0 52 75 0 75 0 0 -52z m300 -248 c0 -29 -1 -30 -50 -30 -49 0 -50 1 -50
30 0 29 1 30 50 30 49 0 50 -1 50 -30z"/>
<path d="M415 1118 c33 -116 48 -157 97 -251 133 -256 355 -412 658 -462 222
-38 514 5 740 108 l45 21 -90 7 c-118 8 -171 23 -280 74 -107 50 -153 84 -303
224 -194 183 -269 218 -525 246 -158 17 -254 41 -308 78 -19 13 -39 26 -46 30
-6 4 -2 -26 12 -75z m184 -53 c71 -18 99 -21 114 -13 12 6 22 7 26 0 3 -5 39
-12 79 -16 169 -17 267 -67 431 -221 66 -63 150 -134 185 -160 73 -52 213
-120 269 -130 80 -15 52 -34 -98 -66 -341 -73 -673 1 -885 198 -61 56 -150
170 -150 192 0 6 -7 11 -16 11 -12 0 -15 6 -11 22 4 12 0 26 -7 32 -17 14 -66
137 -66 166 0 17 4 21 18 15 9 -4 59 -18 111 -30z"/>
<path d="M2165 1265 c-20 -19 -25 -34 -25 -73 0 -71 21 -94 92 -100 51 -4 55
-6 50 -28 -2 -13 3 -35 12 -49 9 -13 16 -27 16 -30 0 -3 -29 -5 -65 -5 -58 0
-65 -2 -65 -20 0 -11 -7 -20 -15 -20 -11 0 -15 -12 -15 -44 0 -59 40 -96 105
-96 25 0 45 5 48 13 4 9 8 9 15 -2 7 -10 14 -11 30 -2 49 26 68 96 37 137 -21
28 -19 34 13 34 17 0 37 10 50 23 48 51 10 117 -66 117 l-41 0 4 57 c4 52 2
60 -22 85 -23 24 -35 28 -80 28 -44 0 -59 -5 -78 -25z m145 -75 l0 -60 -65 0
-65 0 0 60 0 60 65 0 65 0 0 -60z m120 -140 c0 -30 -1 -30 -55 -30 -54 0 -55
0 -55 30 0 30 1 30 55 30 54 0 55 0 55 -30z m-70 -157 l0 -48 -85 0 -85 0 0
48 0 47 85 0 85 0 0 -47z"/>
<path d="M1204 1229 c-12 -13 -19 -35 -19 -61 0 -32 6 -45 29 -65 27 -23 36
-25 104 -21 63 3 77 7 93 27 26 31 25 91 -1 119 -18 19 -31 22 -104 22 -71 0
-86 -3 -102 -21z m191 -60 l-1 -41 -87 -2 -87 -1 0 43 0 42 88 0 88 0 -1 -41z"/>
<path d="M1943 1110 c-37 -22 -101 -103 -110 -138 -4 -19 0 -30 17 -44 18 -14
40 -18 114 -18 87 0 93 1 129 31 21 17 36 38 35 47 -2 11 3 16 14 14 24 -4 36
74 14 96 -21 21 -126 33 -126 15 0 -11 -5 -11 -28 1 -26 13 -32 13 -59 -4z
m160 -95 l-48 -64 -102 -1 -103 0 52 65 52 65 98 0 98 0 -47 -65z"/>
<path d="M1618 965 c-14 -8 -36 -31 -48 -50 -44 -70 0 -111 110 -103 66 5 93
23 126 84 l19 35 -28 25 c-23 20 -39 24 -90 24 -34 -1 -74 -7 -89 -15z m172
-31 c0 -3 -14 -23 -32 -45 l-31 -39 -79 0 -79 0 32 45 32 45 79 0 c43 0 78 -3
78 -6z"/>
<path d="M1963 803 c-29 -6 -52 -38 -46 -64 3 -10 21 -32 40 -49 26 -23 43
-30 76 -30 49 0 87 22 87 51 0 32 -41 78 -79 89 -37 10 -40 10 -78 3z m112
-71 l27 -32 -57 0 c-49 0 -59 4 -80 28 -13 15 -25 30 -25 33 0 4 24 6 54 5 48
-3 58 -7 81 -34z"/>
</g>
</svg>
